<?xml version="1.0" standalone="no"?><svg xmlns="http://www.w3.org/2000/svg" viewBox="0 0 1440 320"><path fill="#2a0a49" fill-opacity="1" d="M0,32L20,64C40,96,80,160,120,181.3C160,203,200,181,240,186.7C280,192,320,224,360,224C400,224,440,192,480,165.3C520,139,560,117,600,133.3C640,149,680,203,720,218.7C760,235,800,213,840,192C880,171,920,149,960,154.7C1000,160,1040,192,1080,197.3C1120,203,1160,181,1200,186.7C1240,192,1280,224,1320,218.7C1360,213,1400,171,1420,149.3L1440,128L1440,0L1420,0C1400,0,1360,0,1320,0C1280,0,1240,0,1200,0C1160,0,1120,0,1080,0C1040,0,1000,0,960,0C920,0,880,0,840,0C800,0,760,0,720,0C680,0,640,0,600,0C560,0,520,0,480,0C440,0,400,0,360,0C320,0,280,0,240,0C200,0,160,0,120,0C80,0,40,0,20,0L0,0Z"></path></svg>