<?xml version="1.0" standalone="no"?><svg xmlns="http://www.w3.org/2000/svg" viewBox="0 0 1440 320"><path fill="#2a0a49" fill-opacity="1" d="M0,96L26.7,128C53.3,160,107,224,160,245.3C213.3,267,267,245,320,213.3C373.3,181,427,139,480,144C533.3,149,587,203,640,218.7C693.3,235,747,213,800,192C853.3,171,907,149,960,149.3C1013.3,149,1067,171,1120,181.3C1173.3,192,1227,192,1280,170.7C1333.3,149,1387,107,1413,85.3L1440,64L1440,0L1413.3,0C1386.7,0,1333,0,1280,0C1226.7,0,1173,0,1120,0C1066.7,0,1013,0,960,0C906.7,0,853,0,800,0C746.7,0,693,0,640,0C586.7,0,533,0,480,0C426.7,0,373,0,320,0C266.7,0,213,0,160,0C106.7,0,53,0,27,0L0,0Z"></path></svg>