<?xml version="1.0" standalone="no"?><svg xmlns="http://www.w3.org/2000/svg" viewBox="0 0 1440 320"><path fill="#472383" fill-opacity="1" d="M0,160L16,154.7C32,149,64,139,96,144C128,149,160,171,192,165.3C224,160,256,128,288,133.3C320,139,352,181,384,202.7C416,224,448,224,480,202.7C512,181,544,139,576,138.7C608,139,640,181,672,186.7C704,192,736,160,768,133.3C800,107,832,85,864,101.3C896,117,928,171,960,197.3C992,224,1024,224,1056,208C1088,192,1120,160,1152,170.7C1184,181,1216,235,1248,224C1280,213,1312,139,1344,128C1376,117,1408,171,1424,197.3L1440,224L1440,0L1424,0C1408,0,1376,0,1344,0C1312,0,1280,0,1248,0C1216,0,1184,0,1152,0C1120,0,1088,0,1056,0C1024,0,992,0,960,0C928,0,896,0,864,0C832,0,800,0,768,0C736,0,704,0,672,0C640,0,608,0,576,0C544,0,512,0,480,0C448,0,416,0,384,0C352,0,320,0,288,0C256,0,224,0,192,0C160,0,128,0,96,0C64,0,32,0,16,0L0,0Z"></path></svg>